<?xml version="1.0" standalone="no"?>
<!DOCTYPE svg PUBLIC "-//W3C//DTD SVG 20010904//EN"
 "http://www.w3.org/TR/2001/REC-SVG-20010904/DTD/svg10.dtd">
<svg version="1.0" xmlns="http://www.w3.org/2000/svg"
 width="1000.000000pt" height="747.000000pt" viewBox="0 0 1000.000000 747.000000"
 preserveAspectRatio="xMidYMid meet">
<metadata>
Created by potrace 1.13, written by Peter Selinger 2001-2015
</metadata>
<g transform="translate(0.000000,747.000000) scale(0.100000,-0.100000)"
fill="#000000" stroke="none">
<path d="M3067 7463 c-5 -9 -111 -329 -372 -1128 -102 -313 -211 -644 -241
-735 -43 -131 -51 -167 -41 -176 6 -7 192 -69 412 -139 441 -140 434 -138
1765 -560 514 -163 1006 -319 1092 -346 208 -66 211 -66 250 56 16 50 69 212
117 360 49 149 164 500 256 780 92 281 206 632 255 780 126 383 124 375 114
385 -5 4 -88 33 -184 63 -155 49 -699 221 -1397 443 -704 224 -705 224 -766
224 -36 0 -56 -4 -52 -10 8 -13 -8 -13 -22 1 -6 6 -26 9 -44 7 l-34 -4 45 -14
c25 -8 49 -20 53 -27 6 -10 13 -11 29 -2 17 9 18 13 7 21 -12 8 -11 9 1 5 9
-2 14 -14 12 -28 -1 -13 0 -30 3 -37 4 -12 9 -11 26 4 21 19 21 18 43 -9 12
-15 32 -27 44 -27 12 0 22 -4 22 -10 0 -5 -13 -7 -31 -3 -30 6 -31 5 -20 -16
9 -15 16 -19 27 -13 19 11 84 -16 84 -35 0 -15 -16 -17 -25 -3 -3 6 -20 10
-36 10 -29 0 -79 40 -79 62 0 5 -4 7 -9 4 -5 -4 -22 -1 -38 6 -53 22 -78 14
-55 -17 11 -15 117 -85 129 -85 6 0 13 -7 17 -15 3 -8 14 -15 25 -15 10 0 21
-7 25 -15 3 -8 16 -15 30 -15 13 0 27 -7 30 -15 3 -9 19 -21 36 -26 16 -6 30
-15 30 -19 0 -19 186 -149 650 -452 96 -63 201 -132 234 -154 173 -116 202
-135 216 -141 25 -11 221 -143 244 -164 13 -13 17 -22 10 -27 -6 -4 -13 -15
-17 -25 -9 -24 -30 -11 -22 14 4 11 2 19 -4 19 -6 0 -11 -4 -11 -9 0 -16 -45
-21 -85 -10 -29 8 -35 13 -24 21 11 8 10 9 -4 4 -9 -3 -32 3 -50 13 -17 10
-50 24 -72 31 -22 7 -49 19 -60 26 -11 8 -26 14 -35 14 -8 0 -26 9 -40 20 -14
11 -33 20 -42 20 -10 0 -22 9 -28 20 -6 10 -16 17 -23 14 -8 -3 -45 10 -83 27
-38 18 -75 31 -81 30 -21 -3 -15 15 10 32 15 11 17 16 7 16 -8 0 -24 -6 -34
-14 -14 -11 -23 -12 -33 -4 -7 6 -11 14 -9 18 3 4 -11 5 -30 3 -41 -5 -43 5
-8 33 17 14 23 26 19 37 -6 16 -12 14 -52 -13 -41 -29 -46 -30 -62 -15 -10 9
-31 16 -47 16 l-29 1 34 28 34 28 -19 26 c-10 14 -29 28 -41 31 -12 3 -23 14
-25 23 -3 15 -5 15 -18 1 -24 -24 -52 -35 -89 -36 -18 0 -35 -3 -38 -6 -3 -2
-13 4 -24 15 -15 15 -24 17 -39 9 -10 -5 -24 -10 -30 -10 -23 0 3 21 62 51
l60 30 -23 27 c-13 15 -24 28 -24 29 0 1 -20 -12 -45 -28 -33 -23 -46 -26 -53
-17 -6 9 -7 8 -4 -4 3 -9 0 -21 -7 -27 -15 -12 -76 -4 -76 10 0 5 -4 9 -10 9
-12 0 0 -32 18 -46 15 -11 1 -25 -124 -119 -37 -27 -84 -65 -106 -82 -41 -34
-58 -41 -58 -23 0 6 -7 10 -15 10 -8 0 -15 5 -15 10 0 10 26 15 61 12 9 -1 19
7 22 18 4 15 0 20 -13 20 -11 0 -21 4 -25 10 -7 11 -55 -8 -55 -22 0 -5 4 -7
9 -4 5 4 17 3 26 0 26 -10 -50 -34 -82 -25 l-26 7 29 19 c16 10 38 26 49 37
56 51 81 68 94 63 11 -4 140 82 171 115 3 3 25 22 50 42 108 88 114 96 101
112 -16 19 -31 21 -31 4 0 -7 -22 -24 -48 -39 l-49 -25 -35 24 c-34 22 -38 23
-67 7 -38 -19 -39 -33 -4 -60 31 -25 26 -36 -22 -59 -34 -16 -36 -16 -65 4
l-30 22 -38 -23 c-43 -26 -54 -39 -47 -56 8 -22 -17 -77 -49 -111 -41 -44 -74
-57 -95 -38 -9 8 -28 19 -44 25 -36 14 -34 24 9 59 36 30 39 52 7 52 -9 0 -38
-13 -65 -30 -53 -33 -81 -39 -72 -15 8 19 -5 19 -30 0 -14 -11 -34 -13 -71 -9
-48 6 -53 4 -83 -26 -18 -17 -32 -35 -32 -40 0 -5 18 -20 40 -33 l40 -24 -35
-32 c-68 -62 -32 -87 56 -39 52 29 60 31 76 17 34 -28 72 -42 121 -43 39 -1
57 -7 81 -28 17 -15 37 -25 45 -22 30 12 24 -15 -9 -41 -51 -38 -85 -71 -85
-81 0 -5 23 -24 50 -42 54 -35 61 -47 30 -49 -11 -1 -40 -16 -65 -33 -49 -34
-48 -34 -115 21 -52 43 -86 62 -114 63 -49 3 -11 52 92 117 61 39 77 59 47 59
-8 0 -15 5 -15 11 0 6 -12 2 -27 -9 -41 -28 -113 -58 -155 -66 -43 -8 -115 8
-141 32 -17 15 -18 14 -11 -29 7 -40 6 -43 -9 -30 -16 12 -21 9 -18 -11 0 -5
-7 -8 -17 -8 -15 -1 -15 -2 3 -13 11 -6 22 -12 25 -13 3 0 18 -6 33 -12 16 -7
31 -12 33 -12 3 0 19 -14 37 -30 18 -17 40 -33 50 -36 18 -6 24 -34 7 -34 -5
0 -10 7 -10 16 0 8 -4 13 -9 9 -5 -3 -12 -1 -16 5 -3 5 -15 10 -26 10 -11 0
-39 13 -62 28 -23 15 -53 33 -67 39 -68 32 -120 53 -130 53 -6 0 -8 5 -5 10 4
6 -5 10 -19 10 -14 0 -26 5 -26 11 0 5 -5 7 -10 4 -6 -3 -13 1 -16 9 -3 9 -13
16 -21 16 -8 0 -26 8 -39 19 -44 35 -86 35 -154 1 -46 -23 -59 -34 -51 -43 5
-7 13 -36 17 -65 10 -79 -6 -74 -106 35 -14 15 -32 38 -41 50 l-15 23 -37 -48
c-70 -92 -83 -231 -32 -332 37 -72 130 -162 189 -184 15 -5 17 -4 7 8 -9 11
-7 15 11 20 34 9 38 8 38 -9 0 -8 5 -15 10 -15 7 0 7 -6 0 -19 -8 -17 -6 -22
15 -33 14 -7 150 -77 303 -155 456 -233 484 -247 473 -251 -5 -2 -61 22 -124
52 -63 31 -117 56 -120 56 -3 0 -54 23 -114 52 -84 40 -119 52 -158 52 -27 1
-54 -3 -58 -9 -5 -6 -7 0 -4 13 5 19 2 22 -11 16 -35 -15 -95 -2 -137 30 l-34
27 -6 -23 c-5 -21 -11 -23 -48 -19 l-42 4 40 13 c39 12 39 12 15 22 -14 5 -27
6 -30 1 -9 -14 -101 -1 -121 17 -10 9 -19 14 -19 10 0 -23 -202 114 -255 173
-80 89 -117 227 -95 350 27 146 91 268 317 601 9 14 62 93 117 175 55 83 104
155 108 160 5 6 44 57 87 115 74 99 219 250 241 250 6 0 10 5 10 10 0 12 -486
14 -493 3z m2349 -594 c6 -5 42 -13 81 -19 50 -7 104 -25 180 -61 162 -76 274
-132 278 -140 3 -4 49 -28 102 -54 116 -55 241 -152 247 -190 1 -7 7 -19 13
-26 6 -8 14 -24 17 -37 4 -12 12 -20 17 -16 6 3 8 13 4 21 -10 28 26 -8 37
-37 17 -41 36 -148 32 -183 -1 -18 -5 -59 -9 -91 -3 -33 -9 -64 -14 -70 -5 -6
-16 -36 -25 -66 -21 -74 -161 -350 -177 -350 -4 0 15 44 41 98 35 72 45 100
37 110 -9 11 -13 10 -21 -5 -19 -33 -73 -18 -99 27 -10 16 -24 30 -31 30 -8 0
-35 -42 -61 -93 -50 -99 -165 -269 -187 -276 -7 -2 -16 -9 -20 -15 -5 -7 -17
0 -33 19 -20 25 -24 41 -25 92 0 34 5 65 10 68 6 3 10 20 10 36 0 17 7 43 15
59 23 44 9 37 -50 -24 -44 -46 -49 -55 -33 -59 15 -4 17 -10 9 -30 -7 -18 -7
-27 2 -31 7 -2 5 -5 -5 -5 -12 -1 -16 -8 -13 -31 2 -16 0 -32 -6 -35 -5 -4 -6
-11 -3 -17 4 -5 2 -20 -4 -31 -18 -38 -25 -62 -23 -74 1 -7 -8 -31 -19 -54
-12 -22 -19 -43 -16 -46 6 -6 -32 -43 -44 -43 -4 0 -10 -10 -13 -21 -4 -14
-11 -20 -20 -16 -8 3 -24 -1 -36 -9 -20 -14 -24 -13 -63 18 -23 18 -45 31 -47
28 -3 -3 -16 15 -29 39 -21 41 -22 45 -6 62 25 28 8 36 -19 11 -25 -24 -47
-29 -47 -11 0 6 -6 9 -14 6 -9 -4 -16 3 -20 16 -4 17 -8 19 -17 10 -10 -10 -9
-17 6 -33 10 -11 13 -20 7 -20 -6 0 -14 5 -17 10 -9 15 -45 12 -45 -4 0 -9 7
-12 20 -9 11 3 20 0 20 -6 0 -6 7 -11 15 -11 20 0 19 -19 -5 -57 -21 -35 -54
-44 -64 -17 -4 11 -12 13 -28 8 -20 -6 -21 -5 -9 10 12 14 11 16 -8 16 -17 0
-21 -5 -17 -17 18 -63 18 -68 -8 -71 -16 -1 -25 3 -23 10 1 8 -11 11 -35 9
-36 -2 -38 -1 -38 29 0 33 -5 36 -65 44 -22 3 -41 5 -42 6 -2 0 -3 7 -3 16 0
11 -6 14 -21 9 -11 -4 -32 -4 -46 0 -24 6 -25 7 -7 20 23 17 10 33 -15 18 -13
-8 -25 -6 -55 12 -22 13 -33 26 -27 29 21 13 11 34 -19 38 -19 3 -31 0 -35
-10 -8 -23 -31 2 -71 79 -20 38 -42 69 -49 69 -15 0 -40 28 -32 36 3 3 14 1
26 -5 11 -6 22 -7 25 -2 8 13 -61 43 -83 36 -12 -4 -25 4 -40 24 -13 16 -34
32 -47 35 -24 6 -34 26 -13 26 8 0 8 4 0 14 -9 10 -8 15 4 20 8 3 15 12 15 21
0 22 17 18 45 -9 16 -16 22 -31 18 -42 -5 -13 -2 -15 15 -9 23 7 32 -10 10
-18 -7 -2 -10 -8 -5 -12 4 -5 17 2 28 14 24 25 39 21 18 -5 -13 -16 -11 -17
14 -12 32 6 35 -5 7 -25 -19 -13 -19 -14 10 -15 20 0 30 4 30 14 0 8 7 14 17
14 15 0 15 -1 0 -18 -21 -23 -21 -32 -2 -32 8 0 15 6 15 14 0 7 7 19 15 26 13
11 14 8 9 -19 -8 -37 3 -41 16 -6 5 14 16 25 24 25 7 0 16 7 20 15 3 8 13 15
23 15 17 -1 17 -1 1 -11 -10 -5 -18 -17 -18 -24 0 -21 52 -19 71 3 20 21 57
52 64 52 3 0 2 -12 -1 -27 -5 -23 -4 -26 7 -15 7 6 23 12 35 12 18 0 21 -4 17
-21 -5 -17 -2 -20 18 -17 19 2 24 9 24 33 0 17 4 36 8 43 5 8 3 12 -7 12 -26
0 -26 15 0 45 14 16 36 29 52 31 60 5 148 27 163 40 8 7 31 19 50 26 32 11 69
42 69 59 0 4 -8 14 -18 21 -11 7 -24 23 -31 36 -11 20 -10 22 13 22 18 0 24 4
20 15 -4 9 0 15 9 15 8 0 17 5 19 11 2 6 17 12 32 12 18 0 24 2 15 8 -7 4 -17
5 -22 2 -5 -3 -8 0 -5 8 2 7 15 16 27 19 12 3 23 10 24 15 1 6 10 10 20 9 9 0
17 3 17 8 0 4 10 8 23 8 13 0 27 4 33 8 5 5 28 15 52 22 39 12 42 16 42 47 0
37 3 37 70 10 14 -5 31 -11 37 -13 23 -4 83 -46 83 -57 0 -6 7 -18 16 -28 12
-13 13 -22 5 -37 -9 -18 -16 -19 -52 -11 -56 13 -74 6 -57 -21 11 -17 11 -22
-1 -29 -15 -10 -49 -104 -57 -161 -2 -19 -8 -37 -12 -40 -4 -3 -14 -18 -22
-35 -8 -16 -21 -34 -28 -38 -11 -7 -10 -12 3 -27 20 -22 12 -80 -11 -80 -8 0
-14 -9 -14 -19 0 -11 -4 -23 -10 -26 -5 -3 -10 -18 -10 -32 0 -26 1 -26 35 13
19 21 37 54 41 72 3 17 10 32 15 32 4 0 15 15 24 33 8 18 33 53 55 78 22 24
40 49 40 54 0 14 157 225 177 240 9 7 17 31 18 61 5 70 5 72 16 44 8 -19 12
-22 19 -10 5 8 6 18 4 22 -3 4 2 8 11 8 11 0 15 5 12 15 -4 8 4 22 19 34 22
18 23 21 8 35 -14 15 -13 16 10 16 14 0 26 5 26 11 0 5 5 7 10 4 20 -12 9 16
-17 47 -57 64 -159 139 -238 174 -97 42 -358 176 -381 195 -19 16 -50 34 -81
48 -32 15 -93 72 -93 87 0 24 40 43 79 37 20 -3 41 -10 47 -14z m-668 -281
l22 -15 -37 -34 c-21 -19 -50 -44 -65 -55 -16 -12 -28 -27 -28 -33 0 -25 46
-8 106 39 35 28 68 50 74 50 12 0 80 -43 80 -50 -1 -3 -37 -29 -81 -59 -44
-30 -86 -59 -93 -65 -34 -31 -54 -36 -86 -19 -20 10 -28 18 -21 23 7 3 -2 7
-20 7 -35 0 -68 33 -69 70 0 32 76 116 149 165 21 14 28 15 36 5 6 -7 20 -20
33 -29z m244 -113 c15 -14 32 -25 38 -25 5 0 10 -4 10 -10 0 -5 10 -10 21 -10
12 0 32 -11 45 -25 13 -14 27 -25 31 -24 27 5 18 -7 -41 -51 -66 -49 -67 -50
-97 -35 -28 15 -31 15 -56 -5 -31 -24 -48 -25 -87 -5 -16 9 -53 16 -83 18 -29
1 -53 4 -53 7 1 6 232 189 240 190 3 0 17 -11 32 -25z m-572 -218 c0 -12 51
-39 77 -41 22 -2 19 -12 -12 -38 -59 -49 -67 -50 -102 -16 -18 18 -36 28 -40
24 -4 -4 8 -21 27 -37 l35 -29 -32 -26 c-37 -29 -43 -60 -13 -69 23 -7 62 12
121 60 24 20 52 43 62 51 9 8 39 29 66 48 47 33 49 34 64 15 9 -10 24 -19 32
-19 8 0 15 -5 15 -11 0 -6 7 -9 15 -5 22 8 18 -7 -7 -28 -13 -11 -48 -41 -79
-67 l-55 -48 -32 19 c-32 20 -45 47 -17 36 15 -5 21 5 9 16 -8 9 -65 -23 -94
-54 -27 -28 -57 -37 -192 -55 -53 -7 -48 -26 6 -22 32 3 42 1 39 -8 -3 -7 0
-13 6 -13 6 0 11 5 11 11 0 6 15 9 34 8 19 -2 38 0 42 3 8 8 44 -9 44 -21 0
-10 -64 -28 -107 -30 -64 -3 -145 49 -158 101 -7 27 13 85 37 108 82 80 171
150 190 150 5 0 8 -6 8 -13z m407 -207 c29 -23 53 -38 53 -34 0 4 6 2 13 -4 6
-5 33 -13 59 -17 44 -7 48 -6 59 19 13 28 29 35 29 12 0 -8 -12 -23 -27 -34
-16 -11 -23 -24 -19 -31 5 -8 12 -9 19 -2 11 9 47 -8 47 -22 0 -7 -30 -18 -65
-23 -16 -3 -40 -7 -52 -9 -16 -4 -23 -1 -23 10 0 14 -12 20 -33 16 -5 -1 -6 3
-2 9 3 5 13 10 21 10 22 0 11 24 -12 28 -10 2 -35 17 -55 33 -35 27 -37 27
-33 6 l5 -22 -12 23 c-7 12 -16 22 -21 22 -5 0 -6 -4 -3 -10 4 -7 -2 -7 -19 0
-18 6 -33 5 -56 -7 -17 -8 -34 -13 -36 -10 -7 6 85 77 99 77 6 0 34 -18 64
-40z m-1472 -17 c13 -16 25 -32 25 -37 0 -6 10 -20 22 -33 15 -16 18 -27 11
-34 -7 -7 2 -22 29 -50 44 -45 58 -75 58 -125 0 -37 -10 -43 -30 -19 -7 8 -19
15 -27 15 -13 0 -13 -3 -2 -16 12 -14 11 -16 -6 -12 -11 2 -19 10 -18 16 3 11
-12 16 -44 15 -7 -1 -13 4 -13 11 0 6 -13 20 -29 31 -16 10 -27 23 -24 28 3 5
-4 6 -16 2 -17 -5 -21 -2 -21 14 0 11 -5 23 -10 26 -6 4 -7 11 -4 17 4 6 1 14
-6 18 -17 10 -4 30 21 30 10 0 19 3 20 8 0 4 2 18 4 32 1 14 -1 30 -6 36 -5 6
-1 19 12 32 25 28 25 28 54 -5z m1495 -145 c0 -4 -8 -14 -17 -24 -17 -17 -16
-17 9 -11 26 7 27 6 25 -31 -1 -34 -4 -38 -23 -36 -24 2 -40 -21 -23 -32 16
-9 -29 -43 -67 -50 -53 -10 -64 -2 -54 42 5 22 5 45 0 55 -8 13 -4 18 20 22
44 9 112 74 105 101 -5 17 -3 17 9 -4 9 -14 15 -28 16 -32z"/>
<path d="M3917 7456 c-7 -18 1 -26 25 -26 10 0 18 -4 18 -9 0 -5 -13 -8 -30
-6 -17 2 -30 -1 -30 -7 0 -6 -13 -8 -30 -6 -16 2 -32 0 -34 -6 -3 -7 -8 -6
-14 2 -8 11 -10 11 -15 -1 -6 -16 -47 -12 -47 4 0 5 -5 9 -11 9 -5 0 -7 -5 -3
-12 5 -8 0 -9 -16 -5 -16 4 -23 1 -27 -14 -3 -10 -9 -19 -14 -19 -5 0 -9 -7
-9 -16 0 -11 -6 -14 -20 -9 -15 5 -18 3 -14 -8 6 -17 -29 -33 -46 -22 -5 3
-10 1 -10 -4 0 -6 5 -11 10 -11 6 0 10 -4 10 -10 0 -5 -7 -10 -15 -10 -8 0
-15 5 -15 10 0 6 -4 10 -10 10 -5 0 -10 -4 -10 -10 0 -5 -11 -26 -25 -46 -15
-22 -23 -45 -19 -56 3 -10 1 -18 -5 -18 -6 0 -23 -14 -38 -30 -19 -22 -29 -27
-35 -18 -6 10 -8 9 -8 -4 0 -9 6 -18 13 -21 9 -3 7 -9 -5 -24 -10 -11 -18 -25
-18 -32 0 -6 -16 -26 -35 -44 -19 -17 -35 -38 -35 -44 0 -7 -4 -13 -9 -13 -5
0 -11 -13 -14 -30 -5 -23 -12 -30 -30 -30 -19 0 -24 -5 -24 -28 0 -16 -9 -42
-21 -58 -11 -16 -24 -45 -27 -64 -9 -44 -6 -40 37 40 60 111 80 143 139 220
31 41 66 92 78 112 42 77 133 176 192 210 55 31 72 48 49 48 -5 0 -10 7 -10
15 0 9 10 15 26 15 19 0 25 -4 20 -15 -7 -19 1 -19 53 0 22 8 41 12 41 10 0
-2 18 2 39 10 22 7 42 11 45 7 4 -3 19 6 34 20 15 14 39 28 55 32 34 8 36 26
2 26 -14 0 -30 -9 -37 -20 -15 -24 -30 -26 -26 -4 2 10 -3 19 -11 22 -10 3
-11 0 -5 -9 6 -12 5 -12 -8 -1 -13 10 -17 10 -21 -2z"/>
<path d="M1905 5356 c-17 -12 -18 -16 -5 -31 13 -15 12 -19 -5 -32 -11 -7 -30
-16 -42 -20 -13 -3 -23 -9 -23 -14 0 -5 -7 -9 -15 -9 -21 0 -19 -22 5 -43 20
-17 27 -47 12 -47 -5 0 -17 9 -27 20 -10 11 -29 20 -42 20 -20 0 -22 -2 -12
-19 33 -52 -22 -65 -130 -31 -65 21 -151 20 -151 -1 0 -5 18 -6 40 -3 60 10
140 -28 140 -65 0 -13 -12 -17 -52 -20 -29 -1 -66 -3 -82 -4 -42 -3 -45 -25
-4 -24 48 1 129 -23 136 -41 9 -24 -33 -51 -73 -47 -47 5 -58 13 -51 41 8 30
-8 31 -28 3 -14 -21 -15 -20 -81 36 -37 31 -72 54 -78 52 -21 -7 -17 -22 12
-39 16 -9 37 -28 47 -43 15 -23 15 -28 3 -36 -8 -5 -21 -6 -29 -3 -87 36 -161
61 -165 55 -2 -5 7 -14 20 -21 14 -7 25 -17 25 -22 0 -5 9 -18 20 -30 37 -40
23 -48 -38 -22 -41 18 -153 20 -212 5 l-35 -9 30 -2 c17 -1 61 -2 100 -2 38 0
81 -5 95 -11 34 -15 60 -37 60 -52 0 -19 -53 -13 -68 7 -7 10 -18 18 -24 18
-7 0 -7 -4 1 -14 11 -14 5 -46 -11 -57 -5 -3 -27 -3 -49 1 -22 4 -42 4 -44 0
-3 -5 13 -11 35 -15 63 -11 47 -25 -28 -25 -67 0 -161 -25 -185 -49 -14 -14
-8 -14 41 3 22 8 43 12 46 9 3 -3 25 0 50 6 46 11 96 2 96 -18 0 -15 -60 -25
-73 -12 -14 14 -47 14 -47 1 0 -15 -38 -50 -53 -50 -18 0 -47 -32 -47 -51 0
-13 -61 -69 -76 -69 -4 0 -15 7 -24 15 -17 15 -60 10 -60 -7 0 -6 9 -8 21 -5
15 4 19 2 15 -9 -4 -9 4 -19 19 -26 29 -13 32 -33 8 -47 -14 -8 -8 -9 20 -4
24 4 37 2 37 -6 0 -6 -7 -11 -15 -11 -8 0 -15 -4 -15 -10 0 -5 5 -10 11 -10 6
0 1 -14 -11 -31 -18 -24 -27 -29 -49 -25 -29 7 -54 -5 -49 -22 2 -6 -13 -24
-32 -40 -19 -17 -31 -34 -27 -39 5 -4 19 4 32 20 13 15 34 27 45 27 12 0 31 5
42 11 57 30 117 7 82 -32 -15 -17 -26 -19 -73 -15 l-56 5 40 -19 40 -19 -45
-2 c-25 -2 -58 -4 -75 -5 -16 -1 -38 -5 -47 -9 -37 -15 -16 -25 51 -25 48 0
72 -4 81 -15 10 -12 9 -16 -2 -20 -8 -3 -19 -5 -24 -4 -5 1 -24 1 -43 0 -45
-1 -32 -14 16 -15 20 -1 38 -6 40 -12 2 -6 -12 -30 -32 -54 -40 -48 -43 -55
-16 -40 36 19 61 13 61 -15 0 -31 17 -33 22 -4 3 23 33 48 43 37 6 -6 -9 -38
-31 -68 -7 -8 -15 -26 -18 -40 -5 -18 -5 -21 3 -10 15 21 50 -14 49 -49 -1
-16 3 -34 7 -41 4 -7 9 -23 11 -34 12 -105 90 -422 115 -469 8 -13 5 -28 -11
-55 -27 -46 -22 -112 12 -169 13 -21 30 -51 37 -68 7 -16 17 -38 22 -47 5 -10
9 -24 9 -32 0 -7 11 -21 24 -30 14 -9 26 -27 28 -43 3 -24 9 -29 43 -34 22 -4
42 -5 44 -3 2 2 7 20 10 39 8 46 25 50 29 8 2 -18 7 -33 12 -33 5 0 10 -7 12
-16 2 -11 16 -18 46 -20 23 -2 53 -11 65 -19 13 -8 44 -14 75 -13 29 1 58 -4
64 -10 7 -7 22 -12 34 -12 12 0 27 -6 34 -14 6 -8 21 -16 33 -18 12 -2 21 -9
19 -16 -3 -17 25 -27 41 -14 7 6 30 13 52 15 78 9 136 30 166 60 35 34 32 43
-9 29 -15 -5 -49 -8 -76 -6 -40 4 -47 2 -44 -13 2 -15 -4 -18 -37 -18 -29 0
-40 4 -40 15 0 9 -11 16 -25 18 -40 5 -80 23 -80 38 0 19 41 22 74 6 34 -16
128 -11 152 9 11 9 14 8 14 -10 0 -25 5 -26 60 -6 68 24 86 12 80 -52 -1 -13
4 -23 12 -24 7 0 34 -2 60 -4 28 -3 50 1 54 7 7 10 32 112 37 148 2 13 -92 70
-116 70 -5 0 -37 13 -72 30 -34 16 -86 35 -116 41 -65 14 -364 6 -384 -11 -8
-6 -41 -9 -83 -7 -42 2 -75 0 -82 -7 -16 -16 -13 11 7 51 13 29 14 36 3 43
-10 6 -7 10 12 15 23 6 27 13 33 66 6 47 4 65 -10 85 -14 22 -15 28 -4 35 8 5
18 9 23 9 4 0 6 7 2 15 -3 9 3 19 14 25 21 11 27 54 10 65 -5 3 -9 18 -9 33 1
51 -8 117 -19 143 -13 32 -7 41 23 33 16 -4 24 1 33 21 7 14 20 28 29 32 19 7
83 70 83 81 0 4 21 14 48 21 41 13 130 17 417 22 52 0 139 -8 158 -16 10 -4
41 -5 68 -2 31 4 58 2 69 -5 14 -9 29 -6 76 17 33 15 69 32 80 37 12 6 65 11
118 11 93 2 97 1 119 -25 32 -38 48 -39 83 -7 l30 29 75 -21 c80 -23 115 -26
140 -15 19 9 69 -65 73 -108 2 -17 6 -42 10 -56 3 -14 3 -45 -2 -70 -9 -52 9
-172 29 -197 8 -9 26 -21 40 -27 34 -14 96 -88 103 -123 3 -16 8 -66 11 -113
3 -47 9 -110 14 -140 6 -30 8 -77 5 -105 -2 -27 -5 -61 -5 -75 0 -14 -5 -33
-11 -44 -11 -20 -19 -246 -9 -246 16 1 41 76 41 123 0 29 5 70 11 92 5 22 12
81 14 130 6 123 14 163 35 178 27 19 62 83 60 109 -4 39 -1 48 16 48 14 0 16
-8 11 -55 -3 -31 -2 -55 4 -55 5 0 9 -15 9 -34 0 -51 17 -53 25 -4 4 24 10 48
13 53 4 6 7 43 8 82 1 41 7 79 14 88 12 15 8 45 -7 45 -4 0 -22 -14 -40 -30
-18 -17 -34 -30 -37 -30 -13 0 -5 31 13 47 26 25 46 90 32 106 -11 14 3 122
34 262 14 62 14 79 1 154 -8 47 -13 89 -10 93 3 5 -2 18 -12 29 -12 14 -14 23
-7 30 8 8 13 8 17 0 11 -17 23 -13 29 8 4 16 11 19 45 14 24 -3 42 -1 46 6 4
6 16 11 27 11 27 0 24 17 -5 24 -24 6 -40 31 -30 47 3 5 16 9 30 9 38 0 33 39
-6 47 -42 8 -32 26 20 36 33 7 40 11 28 18 -9 5 -38 4 -72 -3 -64 -12 -81 -5
-46 19 l24 17 -24 7 -25 7 23 7 c27 9 29 25 2 25 -11 0 -20 5 -20 10 0 6 10
10 22 10 17 0 19 3 10 12 -9 9 -15 9 -24 0 -16 -16 -38 -15 -38 2 0 8 -7 16
-15 20 -28 11 -15 25 21 23 20 -1 39 3 41 9 2 7 -8 9 -28 6 -26 -4 -31 -2 -26
11 3 9 2 19 -3 22 -6 4 -10 9 -10 13 0 10 82 54 95 52 28 -6 23 3 -22 38 -26
21 -60 42 -76 45 -34 9 -36 37 -2 37 14 0 25 4 25 9 0 13 -56 21 -105 14 -50
-6 -52 -3 -29 52 8 20 13 39 10 42 -6 6 22 74 39 93 17 20 57 91 53 95 -2 2
-28 -3 -58 -11 -30 -8 -72 -12 -92 -9 -20 3 -40 1 -43 -5 -11 -17 -25 -11 -25
12 0 20 -1 20 -18 5 -10 -10 -21 -14 -24 -11 -4 3 -17 -2 -31 -11 -15 -10 -28
-12 -31 -6 -8 12 59 127 82 140 13 7 14 13 5 22 -9 9 -19 3 -43 -25 -18 -20
-40 -36 -50 -36 -10 0 -23 -6 -29 -14 -7 -8 -27 -14 -46 -13 -35 1 -46 11 -22
20 7 3 0 9 -15 16 -16 6 -28 17 -28 25 0 7 -7 16 -15 19 -17 7 -13 28 14 84
27 55 26 80 -1 28 -11 -22 -27 -47 -35 -56 -8 -9 -15 -26 -16 -38 -1 -13 -8
-21 -19 -21 -22 0 -24 33 -3 50 8 7 13 15 11 19 -2 3 4 23 14 44 10 20 14 37
9 37 -11 0 -59 -75 -59 -94 0 -21 -60 -75 -77 -69 -13 5 -13 3 -2 -15 11 -17
11 -24 1 -34 -17 -17 -31 0 -39 46 -4 27 -2 41 8 47 12 7 12 10 1 18 -8 4 -13
11 -13 15 2 16 0 18 -14 6 -18 -15 -15 -19 -50 53 -15 31 -29 57 -30 57 -2 0
1 -17 6 -37 27 -109 24 -120 -24 -83 -27 22 -47 26 -47 10 0 -5 -7 -10 -15
-10 -17 0 -20 21 -4 37 7 7 3 15 -15 26 -13 9 -26 27 -28 39 -2 14 -9 22 -19
20 -8 -1 -22 9 -29 23 -7 14 -16 25 -19 25 -3 0 -16 -23 -29 -50 -12 -28 -27
-50 -33 -50 -5 0 -34 19 -64 41 -32 24 -61 39 -70 35 -22 -8 -18 -25 8 -35 31
-13 69 -50 64 -64 -6 -16 -78 -9 -98 9 -22 20 -27 18 -21 -11 3 -20 0 -25 -16
-25 -22 0 -62 48 -62 73 0 19 -26 40 -50 42 -20 2 -18 -7 7 -37 11 -12 12 -22
5 -34 -8 -15 -12 -12 -28 22 -30 65 -100 123 -140 116 -15 -3 -34 21 -42 53
-7 23 -9 24 -27 11z"/>
<path d="M7030 5140 c-319 -56 -369 -70 -515 -143 -86 -42 -121 -67 -161 -109
-37 -40 -61 -57 -86 -62 -43 -8 -50 -17 -67 -76 -7 -25 -36 -82 -63 -128 -51
-82 -56 -108 -16 -83 18 11 22 11 30 -3 13 -24 26 -20 70 20 44 40 59 38 37
-4 -27 -54 -69 -100 -87 -96 -11 3 -23 -5 -34 -26 -25 -44 -48 -40 -48 10 0
50 -11 51 -34 4 -13 -28 -19 -86 -27 -263 -13 -256 -8 -405 14 -471 9 -25 18
-66 21 -91 3 -25 14 -67 26 -93 11 -26 20 -50 20 -52 0 -3 -14 -10 -30 -16
-56 -19 -49 -83 26 -225 41 -77 45 -92 50 -176 7 -136 38 -193 119 -219 39
-13 41 -16 71 -103 17 -50 36 -103 43 -120 6 -16 17 -43 23 -60 6 -16 20 -42
30 -57 23 -33 34 -93 43 -228 4 -58 12 -113 17 -123 6 -12 6 -29 -1 -49 -8
-21 -7 -36 0 -50 6 -11 7 -18 1 -15 -5 4 -12 -32 -16 -88 -5 -73 -3 -104 10
-142 38 -115 172 -329 280 -446 30 -32 54 -62 54 -67 0 -4 24 -23 53 -41 165
-104 196 -125 234 -161 28 -27 45 -38 55 -32 7 5 39 11 70 15 34 4 86 21 130
43 40 20 82 36 93 36 32 0 38 7 100 112 6 9 32 44 59 79 75 96 163 264 202
385 31 97 35 123 37 231 1 66 -1 124 -5 128 -3 4 -18 -1 -32 -11 -32 -20 -46
-11 -23 14 19 21 22 48 7 57 -7 4 -4 18 8 38 11 18 24 69 30 115 11 77 21 108
78 226 29 61 30 75 4 51 -11 -10 -20 -28 -20 -41 0 -12 -15 -42 -34 -67 -19
-24 -39 -54 -46 -67 -6 -12 -26 -28 -44 -35 -18 -8 -44 -30 -57 -49 -25 -38
-43 -42 -163 -36 -41 2 -116 -28 -116 -46 0 -14 44 -34 78 -34 15 0 36 -7 46
-15 11 -8 27 -15 37 -15 25 0 30 -26 8 -46 -10 -9 -19 -22 -19 -27 0 -5 -21
-34 -46 -63 -34 -40 -52 -54 -72 -54 -15 0 -56 -7 -92 -16 -70 -17 -129 -19
-255 -9 -44 4 -92 7 -107 6 -38 0 -124 41 -148 72 -43 55 -18 98 71 123 33 9
59 21 59 26 0 42 -113 116 -131 86 -6 -9 -9 -9 -9 -1 0 14 48 53 65 53 15 0
52 -43 77 -89 29 -52 73 -72 148 -68 63 4 169 35 196 58 8 6 14 24 14 39 0 20
10 37 33 55 l32 26 -45 -6 c-54 -7 -79 -8 -236 -6 -86 1 -126 5 -140 15 -18
14 -18 15 11 26 16 6 66 13 110 16 44 2 126 7 183 10 122 7 195 -12 221 -58
10 -17 25 -28 38 -28 30 0 38 17 20 44 -8 12 -17 33 -19 47 -5 41 -84 59 -266
63 -84 2 -155 6 -158 9 -10 10 5 25 33 32 81 20 162 103 193 198 6 21 18 41
25 43 7 3 16 16 19 30 4 13 13 24 22 24 26 0 26 27 0 79 -23 45 -60 80 -72 68
-2 -2 5 -25 17 -51 11 -26 19 -57 17 -69 -3 -19 -11 -23 -63 -27 -34 -3 -73
-13 -88 -22 -37 -25 -94 -22 -142 7 -25 16 -55 25 -81 25 -22 0 -48 6 -58 13
-15 11 -16 18 -5 60 6 26 9 51 5 55 -13 12 -41 -14 -66 -61 l-25 -46 20 -37
c11 -21 27 -39 36 -41 10 -3 22 -23 28 -46 18 -68 73 -159 111 -185 19 -13 35
-29 35 -35 0 -14 -106 -45 -190 -57 -132 -17 -221 -77 -199 -134 4 -11 1 -16
-10 -16 -9 0 -16 5 -16 12 0 6 -32 44 -72 83 -72 74 -101 130 -99 195 0 14 2
63 4 109 4 123 -12 150 -187 309 -23 21 -36 41 -36 58 0 14 -11 40 -24 57 -14
18 -24 37 -24 42 0 6 -3 44 -6 86 -8 84 13 210 39 239 8 9 15 22 15 28 0 7 10
32 21 57 l21 45 -24 33 c-43 56 -48 97 -35 303 8 133 23 184 62 210 36 24 41
12 16 -41 -26 -54 -25 -51 -1 -58 11 -3 24 -16 29 -30 13 -34 61 -71 75 -57 7
7 5 19 -7 39 -9 16 -17 41 -17 55 0 14 -4 26 -8 26 -12 0 -32 46 -32 71 0 11
12 30 26 43 23 19 25 25 15 43 -8 17 -7 30 9 65 24 54 41 71 105 98 66 28 127
31 154 6 17 -16 38 -19 128 -20 93 -1 113 -4 144 -24 32 -20 38 -20 49 -7 7 9
21 13 31 10 11 -4 21 1 27 11 8 15 15 14 72 -14 56 -26 66 -28 84 -17 12 7 42
16 68 20 44 7 48 5 92 -35 35 -32 49 -40 59 -32 7 6 22 9 33 7 10 -2 31 -6 46
-10 15 -3 43 -18 61 -35 32 -28 130 -73 139 -64 6 5 129 -35 145 -48 6 -5 10
-15 7 -23 -3 -7 5 -33 17 -57 12 -23 26 -61 30 -83 4 -22 13 -67 19 -100 7
-33 13 -112 14 -175 2 -79 9 -140 23 -195 46 -176 56 -234 51 -300 -4 -45 -2
-65 5 -62 6 2 14 16 18 31 11 38 28 56 55 56 30 0 73 56 81 104 6 40 -4 45
-47 21 -49 -28 -100 -14 -100 27 0 26 27 77 60 113 15 17 33 50 40 75 27 96
39 418 26 728 -4 92 -10 123 -32 175 -34 81 -39 107 -25 117 9 5 0 31 -32 96
l-45 89 -137 98 c-174 125 -262 168 -464 228 -188 56 -250 61 -431 29z"/>
<path d="M7627 3534 c-4 -4 -42 -11 -84 -15 -105 -11 -201 -32 -240 -53 l-33
-16 6 -78 c4 -42 13 -88 21 -100 13 -21 16 -22 31 -8 11 9 41 16 77 18 l60 3
5 35 c6 43 32 51 66 19 32 -30 97 -29 129 1 19 17 26 19 50 10 16 -6 33 -16
39 -23 6 -7 28 -19 48 -25 30 -10 41 -10 57 0 46 28 13 79 -80 126 -64 31 -71
37 -47 40 15 2 43 -1 62 -7 22 -5 38 -6 42 0 3 5 -1 9 -9 9 -8 0 -30 16 -50
35 -32 31 -42 35 -90 35 -29 0 -57 -3 -60 -6z"/>
<path d="M6664 3500 c-93 -8 -104 -13 -104 -44 0 -46 -52 -62 -85 -26 -24 26
-44 25 -49 -2 -25 -133 -26 -150 -6 -178 26 -36 59 -44 105 -24 26 10 51 13
83 8 l47 -7 -19 22 c-16 17 -17 25 -8 46 14 30 42 32 67 5 29 -32 72 -26 112
16 40 43 63 40 63 -10 0 -27 5 -36 23 -42 12 -4 28 -7 36 -5 29 6 61 -10 61
-29 0 -18 2 -19 23 -8 61 35 71 74 45 172 -14 54 -28 63 -120 77 -40 6 -85 17
-100 25 -29 15 -46 15 -174 4z"/>
<path d="M3163 3179 c-6 -6 -9 -17 -7 -24 3 -7 0 -16 -6 -20 -8 -5 -7 -11 2
-22 10 -12 9 -18 -6 -29 -17 -12 -22 -11 -43 10 -31 31 -72 38 -125 23 -24 -8
-74 -12 -113 -9 -82 4 -94 4 -243 -1 -79 -3 -117 -8 -130 -19 -19 -16 -153
-78 -169 -78 -5 0 -20 -11 -33 -25 -20 -22 -22 -29 -12 -43 7 -9 21 -36 32
-60 23 -49 43 -61 69 -38 24 22 79 20 126 -5 22 -12 70 -29 107 -39 55 -15 71
-16 91 -5 13 7 40 15 59 19 19 3 43 13 54 22 18 15 18 15 -6 9 -14 -3 -50 -10
-80 -15 -30 -5 -64 -12 -75 -15 -28 -8 -85 49 -67 67 7 7 12 20 12 30 0 22 13
23 30 3 23 -28 132 -14 172 22 22 19 76 19 93 0 15 -18 126 -19 152 -1 13 8
23 10 23 4 0 -5 9 -10 21 -10 18 0 20 -5 18 -37 -3 -60 0 -93 10 -93 5 0 13
12 18 28 23 63 33 100 33 120 0 27 19 71 42 98 13 15 16 29 12 53 -6 30 -8 31
-24 16 -25 -23 -34 -3 -16 33 19 37 5 57 -21 31z"/>
<path d="M7984 3007 c-12 -17 -29 -46 -38 -64 -8 -17 -21 -37 -29 -45 -41 -43
-58 -78 -52 -112 4 -19 16 -42 26 -52 18 -16 20 -16 45 7 15 14 23 31 20 42
-2 10 2 43 10 73 8 30 14 63 14 74 0 10 9 39 20 64 22 53 14 60 -16 13z"/>
<path d="M3162 2786 c0 -70 -22 -113 -57 -113 -36 0 -52 -18 -35 -38 17 -20
-3 -45 -36 -45 -13 0 -25 -3 -25 -7 -1 -5 -3 -27 -4 -51 -4 -53 14 -64 56 -33
20 15 29 17 29 8 0 -7 -4 -17 -9 -22 -9 -11 -22 -135 -14 -135 10 0 32 35 33
51 0 8 13 33 29 55 32 44 46 116 28 145 -8 13 -8 24 1 44 7 14 12 37 12 51 0
13 6 34 13 45 10 18 9 23 -1 26 -10 4 -10 8 2 17 18 13 11 56 -9 56 -8 0 -13
-18 -13 -54z"/>
<path d="M1161 2708 c1 -35 -2 -80 -6 -101 -7 -34 -5 -39 14 -44 17 -4 21 -11
17 -28 -3 -13 3 -42 13 -66 21 -48 66 -336 86 -549 l13 -135 -52 -48 c-28 -26
-73 -58 -101 -71 -27 -13 -95 -45 -150 -71 -55 -26 -138 -65 -183 -87 -46 -22
-125 -54 -175 -73 -254 -92 -266 -97 -260 -112 5 -13 0 -15 -28 -11 -35 5 -89
-8 -89 -21 0 -12 33 -38 58 -46 15 -4 29 -2 40 8 9 8 35 23 57 34 27 12 41 26
43 41 3 19 9 22 52 22 32 0 50 5 53 14 4 9 14 12 25 9 20 -5 59 15 99 50 23
21 53 17 53 -6 0 -8 -7 -20 -15 -27 -8 -7 -15 -23 -15 -35 0 -12 -6 -28 -14
-34 -7 -6 -16 -24 -19 -40 -3 -15 -23 -48 -43 -72 -20 -24 -44 -60 -52 -79
-28 -68 -32 -75 -57 -115 -14 -22 -33 -56 -42 -75 -10 -19 -18 -36 -19 -38 -1
-2 -12 3 -24 10 -20 12 -24 10 -49 -20 -30 -35 -51 -39 -115 -21 -41 11 -68 4
-109 -30 -16 -13 -18 -13 -24 8 -6 22 -19 24 -66 5 -11 -4 -16 2 -19 18 -2 17
-9 23 -28 23 l-25 0 -3 -166 -2 -166 25 5 c14 2 25 10 25 18 0 14 102 84 123
84 6 0 28 -17 49 -38 28 -30 35 -43 31 -64 -3 -15 -11 -32 -19 -39 -8 -7 -11
-21 -7 -40 4 -22 2 -29 -10 -29 -9 0 -19 5 -22 10 -3 6 -17 10 -31 10 -21 0
-24 3 -19 22 6 17 4 20 -10 15 -9 -4 -21 -7 -26 -7 -6 0 -5 -8 1 -20 13 -25
-5 -58 -34 -62 -14 -2 -21 -11 -21 -28 0 -17 -7 -26 -25 -30 -30 -7 -41 -40
-13 -40 10 0 23 -8 29 -17 9 -14 24 -18 70 -17 32 1 66 5 75 8 9 4 31 -2 50
-13 28 -16 42 -18 79 -11 27 5 49 5 55 -1 16 -16 26 -10 36 20 6 16 16 32 23
34 16 6 96 -44 96 -60 0 -11 -58 -36 -111 -47 -20 -4 -32 -19 -53 -66 -15 -34
-25 -68 -22 -76 10 -26 79 -17 290 41 50 13 61 13 75 2 9 -8 24 -17 34 -20 10
-4 17 -13 14 -20 -4 -12 -26 -14 -57 -6 -9 3 -16 -4 -18 -19 -2 -15 2 -22 13
-22 8 0 18 -7 21 -15 5 -13 38 -15 214 -15 l208 0 16 35 c17 36 33 112 38 180
3 38 5 40 33 37 17 -1 63 -12 103 -24 49 -14 76 -18 83 -11 6 6 12 45 15 87 4
61 2 83 -11 102 -20 31 -10 52 14 30 21 -19 31 -12 31 24 0 35 -16 48 -65 52
-36 3 -42 7 -59 43 -11 22 -26 44 -33 48 -7 5 -11 13 -7 18 4 6 11 6 20 -2 7
-6 21 -8 30 -5 14 5 11 12 -19 41 -20 19 -40 35 -45 35 -14 0 -23 -28 -12 -35
5 -3 8 -20 5 -38 -4 -31 7 -78 28 -125 7 -15 16 -20 28 -17 22 7 66 -32 51
-47 -15 -15 -97 -6 -97 12 0 8 -4 21 -9 29 -8 12 -11 11 -22 -3 -17 -24 -53
-17 -76 14 -16 22 -16 29 -6 57 11 29 10 35 -11 57 -20 21 -21 28 -12 62 6 22
11 57 10 79 0 35 -6 45 -47 79 l-46 38 -70 -7 c-93 -8 -116 -14 -116 -30 0 -7
-20 -15 -52 -18 -28 -4 -58 -13 -66 -21 -12 -12 -11 -17 8 -36 20 -20 23 -20
39 -6 15 14 18 13 29 -4 7 -12 8 -20 2 -20 -5 0 -10 -6 -10 -14 0 -22 -40 -46
-77 -46 -17 0 -35 -5 -38 -11 -4 -6 -13 -8 -21 -5 -18 7 -27 -10 -20 -40 7
-28 31 -32 44 -8 9 16 13 15 51 -2 25 -12 39 -24 36 -32 -3 -8 -5 -19 -5 -26
0 -7 -12 -14 -27 -14 -16 0 -43 -2 -62 -3 -23 -2 -37 3 -40 12 -7 23 -62 69
-81 69 -28 0 -35 20 -11 27 17 4 19 8 10 19 -9 11 -3 21 27 49 21 19 46 35 55
35 9 0 27 8 40 19 l23 18 -29 26 c-17 15 -36 27 -42 27 -17 0 -16 15 2 30 8 7
18 34 21 61 8 63 27 67 118 23 44 -21 64 -24 163 -24 129 0 137 5 104 64 -12
20 -21 45 -21 56 0 11 -3 20 -7 20 -5 0 -14 4 -21 9 -12 7 -12 12 -1 30 11 17
11 25 1 41 -6 11 -12 29 -12 41 0 27 -18 59 -33 59 -7 0 -25 -23 -42 -50 -16
-27 -39 -54 -50 -60 -48 -26 -66 -38 -86 -55 -11 -11 -32 -18 -47 -17 -22 1
-32 -7 -55 -44 -24 -41 -30 -45 -60 -42 -20 2 -32 8 -32 18 -1 8 -9 27 -18 41
-17 26 -17 28 4 68 11 22 24 41 28 41 3 0 14 -14 23 -30 25 -43 78 -42 119 2
16 18 29 38 29 45 0 7 8 13 19 13 10 0 41 23 69 50 28 27 60 50 70 50 11 0 25
7 32 15 7 8 21 15 31 15 25 0 24 16 -1 23 -14 4 -20 14 -20 33 0 22 3 25 12
16 7 -7 16 -12 20 -12 13 0 9 35 -4 48 -10 10 -10 15 2 22 23 14 30 12 30 -9
0 -11 5 -23 10 -26 6 -3 10 -15 10 -26 0 -15 5 -19 18 -15 31 10 40 -6 39 -74
-2 -58 0 -65 17 -65 12 0 27 -14 38 -35 26 -47 45 -60 90 -60 35 0 38 2 38 28
0 15 4 32 9 37 6 6 1 28 -14 59 -36 75 -45 226 -14 226 6 0 8 -3 6 -7 -3 -5 1
-48 8 -98 10 -74 20 -103 55 -165 52 -90 115 -169 170 -213 88 -71 101 -78
117 -75 14 3 11 8 -13 21 -21 11 -54 51 -97 119 -36 57 -69 110 -72 119 -17
46 112 19 170 -35 32 -30 85 -47 141 -44 52 2 92 -21 138 -76 21 -25 43 -46
50 -46 7 0 25 -13 41 -30 15 -16 42 -32 59 -36 17 -3 36 -10 41 -14 6 -4 30
-10 55 -13 25 -4 69 -11 99 -16 73 -14 139 1 183 42 49 44 126 97 141 97 20 0
37 22 37 47 0 13 8 27 18 31 9 4 17 14 17 22 0 11 12 15 43 17 24 1 46 4 49 7
11 11 -7 36 -26 36 -20 0 -19 2 4 37 14 21 29 43 35 50 5 7 10 16 10 22 0 5 7
11 15 15 8 3 15 14 15 24 0 24 35 58 45 43 11 -18 24 -12 31 13 3 14 12 27 20
30 8 3 14 19 14 35 0 24 5 32 24 37 15 3 26 14 28 27 2 16 12 24 38 28 31 6
33 7 13 14 -23 7 -32 25 -13 25 6 0 20 21 31 48 11 26 26 54 33 62 15 18 38
128 30 142 -3 5 -1 14 4 21 5 7 17 39 27 72 9 33 20 65 25 70 33 42 91 187 89
225 0 12 -2 12 -6 1 -3 -8 -21 -28 -39 -45 -19 -17 -34 -40 -34 -51 0 -19 -34
-43 -82 -59 -11 -3 -15 -11 -12 -20 4 -9 -5 -20 -25 -30 -17 -9 -36 -26 -42
-39 -19 -36 -72 -76 -101 -77 -18 0 -28 -5 -28 -15 0 -8 -9 -15 -20 -15 -11 0
-24 -8 -27 -17 -9 -23 -23 -33 -50 -33 -16 0 -23 -6 -23 -19 0 -20 -18 -31
-51 -31 -27 0 -24 -18 4 -25 19 -5 23 -12 22 -45 0 -23 -8 -47 -20 -59 -10
-12 -23 -31 -30 -44 -9 -19 -17 -22 -58 -19 -45 3 -47 2 -47 -22 0 -29 -20
-37 -21 -8 0 13 -2 12 -9 -6 -5 -12 -7 -29 -4 -37 4 -8 2 -15 -4 -15 -5 0 -12
10 -15 22 -5 18 -8 19 -21 8 -9 -7 -16 -17 -16 -23 0 -13 -27 -34 -70 -53 -32
-14 -36 -14 -47 2 -12 17 -14 17 -28 -2 -14 -19 -15 -19 -21 4 -7 25 -19 29
-28 7 -8 -21 -57 -39 -66 -24 -6 8 -9 8 -14 0 -4 -6 -18 -11 -32 -11 -17 0
-24 6 -24 19 0 15 -8 21 -32 23 -28 2 -34 8 -38 33 -3 18 -12 31 -23 33 -11 2
-35 14 -55 28 -92 59 -102 73 -54 74 53 0 87 5 102 15 8 5 38 10 65 11 159 7
243 14 268 23 16 6 42 11 58 11 31 0 79 38 79 62 -1 34 -17 40 -115 39 -54 -1
-104 -6 -110 -11 -21 -17 -171 24 -207 57 -12 11 -27 14 -49 9 -18 -3 -51 1
-80 10 -39 13 -52 14 -64 4 -16 -13 -59 -4 -49 11 3 6 0 17 -7 25 -6 8 -10 17
-7 19 3 3 117 7 254 9 137 2 281 8 319 15 39 6 107 18 151 26 45 8 98 15 117
15 20 0 39 5 42 10 12 19 -48 31 -124 25 -42 -3 -119 -8 -171 -10 -52 -3 -102
-6 -110 -7 -8 -1 -46 1 -85 5 -40 4 -104 3 -150 -3 -44 -6 -116 -13 -160 -16
-44 -4 -88 -11 -98 -16 -27 -14 -73 0 -94 29 -10 14 -30 40 -45 58 -17 20 -28
44 -28 63 0 21 -6 32 -19 37 -17 5 -45 63 -53 109 -4 28 -28 32 -28 6 0 -13
-5 -20 -12 -17 -7 2 -12 12 -11 23 1 10 -7 24 -18 32 -12 8 -18 20 -15 29 4
10 -1 17 -15 20 -14 4 -17 8 -8 13 9 6 6 16 -10 38 -11 17 -21 35 -21 40 0 5
-7 12 -15 16 -20 7 -19 33 1 44 14 8 14 12 3 30 -8 12 -19 22 -26 22 -13 0
-123 108 -123 122 0 4 -7 8 -15 8 -9 0 -18 12 -21 28 -7 35 -23 54 -57 70
l-28 12 2 -62z"/>
<path d="M1947 2333 c-11 -10 -7 -66 6 -90 16 -29 120 -113 140 -113 9 0 18
-4 21 -9 3 -4 17 -6 30 -4 14 3 46 -3 72 -13 46 -17 48 -17 58 0 27 45 52 69
98 94 74 39 86 47 108 67 20 18 27 50 13 58 -16 9 -189 -20 -220 -36 -42 -22
-88 -22 -127 2 -58 36 -181 63 -199 44z"/>
<path d="M7920 2085 c0 -8 14 -45 31 -82 l32 -66 -6 -201 c-6 -196 -21 -300
-47 -331 -7 -8 -10 -25 -6 -37 5 -22 -9 -134 -39 -308 -34 -190 -37 -200 -56
-200 -21 0 -44 28 -141 174 -40 60 -81 114 -90 120 -14 9 -29 -2 -85 -60 -66
-67 -71 -70 -138 -83 -62 -12 -75 -11 -109 3 -27 11 -53 14 -86 10 -45 -6 -48
-4 -70 26 -12 17 -53 51 -90 75 -37 24 -82 56 -101 72 -55 47 -138 103 -152
103 -7 0 -25 -12 -40 -28 -30 -31 -180 -328 -174 -345 2 -6 27 -10 64 -8 74 3
120 -17 134 -59 6 -17 22 -33 40 -40 64 -27 109 -86 109 -144 0 -12 27 -102
61 -201 l61 -180 -6 -93 c-6 -89 -23 -146 -55 -184 -13 -17 1 -18 282 -18 252
0 297 2 297 14 0 8 -5 18 -11 22 -6 3 -20 27 -31 53 -10 25 -28 55 -38 66 -36
39 -54 105 -54 195 0 165 8 237 29 260 24 27 96 60 129 60 16 0 32 9 42 25 8
13 34 33 57 44 23 11 55 36 70 56 55 70 90 38 82 -77 -8 -114 -43 -399 -55
-443 -5 -22 -17 -80 -25 -130 -8 -50 -18 -102 -21 -117 l-6 -28 1147 0 1147 0
-5 23 c-3 12 -11 76 -17 142 -14 159 -27 225 -60 315 -15 41 -32 91 -39 110
-6 19 -16 112 -22 205 l-11 170 -45 67 c-24 37 -54 70 -66 74 -28 8 -478 201
-577 247 -41 19 -138 65 -215 102 -77 37 -194 92 -260 122 -66 30 -124 58
-130 62 -5 5 -50 30 -100 56 -214 113 -228 122 -317 192 -89 70 -138 121 -154
160 -18 42 -64 70 -64 38z"/>
<path d="M6399 2034 c-35 -25 -53 -49 -69 -89 -17 -42 -43 -74 -118 -147 l-97
-93 -180 -79 c-299 -132 -413 -180 -580 -246 -88 -34 -196 -80 -239 -102 -43
-22 -119 -57 -168 -78 -99 -43 -222 -115 -286 -167 -51 -42 -122 -174 -122
-228 0 -19 5 -66 12 -105 11 -64 10 -76 -10 -142 -57 -185 -74 -296 -82 -545
0 -10 207 -13 1002 -13 969 0 1001 1 985 18 -10 10 -17 26 -17 34 0 9 -6 18
-12 21 -9 3 -6 10 10 22 28 21 28 39 -3 79 -18 24 -24 44 -25 82 0 27 0 72 0
99 0 35 6 58 20 78 11 15 16 27 10 27 -5 0 -10 -4 -10 -10 0 -5 -9 -10 -21
-10 -17 0 -20 4 -15 27 4 16 8 43 11 61 2 18 8 39 13 45 11 14 7 142 -8 247
-6 43 -12 256 -12 495 -1 434 5 521 46 640 17 49 27 115 18 114 -4 0 -28 -16
-53 -35z"/>
<path d="M3206 1490 c25 -86 32 -120 33 -162 1 -16 6 -28 12 -28 12 0 8 82 -6
115 -7 17 -5 16 13 -4 24 -27 26 -49 12 -161 -6 -41 -12 -92 -14 -112 -2 -21
-8 -44 -14 -51 -7 -8 -9 -17 -6 -20 4 -4 14 4 24 16 32 42 51 111 61 220 l9
110 -27 29 c-37 38 -23 45 30 14 24 -14 53 -26 64 -26 11 0 27 -7 34 -16 11
-14 10 -19 -10 -35 -17 -14 -21 -24 -15 -41 4 -13 7 -35 6 -50 -1 -15 2 -29 8
-33 5 -3 10 2 10 11 0 10 7 25 15 35 9 9 17 36 18 59 1 37 -3 46 -31 70 -29
24 -231 140 -244 140 -3 0 5 -36 18 -80z"/>
<path d="M3952 1108 c2 -6 19 -17 37 -23 17 -6 35 -15 39 -21 4 -6 48 -32 97
-59 124 -66 121 -63 83 -92 -70 -53 -85 -56 -124 -32 -19 11 -49 22 -67 24
-18 2 -44 6 -59 10 -23 6 -29 3 -39 -19 -13 -28 -24 -33 -34 -16 -8 13 -35 -6
-35 -25 0 -6 29 -27 65 -45 48 -24 71 -31 92 -26 35 9 54 10 72 5 23 -7 24 19
1 26 -23 7 -22 33 1 26 8 -2 25 -6 39 -8 48 -9 52 -11 40 -32 -20 -39 13 -37
64 4 19 15 19 15 1 29 -16 11 -17 16 -6 29 11 14 17 14 54 1 31 -11 48 -12 67
-4 19 8 35 8 56 0 16 -6 25 -7 19 -2 -18 17 -449 262 -461 262 -3 0 -4 -5 -2
-12z"/>
<path d="M3778 1023 c-8 -10 -18 -27 -22 -37 -6 -17 -13 -18 -65 -13 -67 7
-81 -1 -81 -49 0 -18 -4 -36 -10 -39 -5 -3 -10 -12 -10 -19 0 -11 -24 -40 -98
-118 -21 -21 -63 -58 -67 -58 -2 0 -29 -19 -60 -42 -45 -34 -55 -46 -50 -62
15 -49 9 -59 -47 -71 -23 -4 -26 -8 -19 -28 7 -18 15 -21 41 -19 20 2 36 -2
41 -10 15 -23 9 -82 -11 -108 -11 -14 -20 -32 -20 -40 0 -8 -7 -28 -15 -44 -9
-16 -13 -37 -10 -45 3 -8 3 -39 -1 -67 -6 -48 -9 -53 -35 -59 -51 -11 -25 -55
33 -55 13 0 36 -7 52 -15 22 -12 67 -15 205 -15 162 1 174 2 149 16 -33 18
-34 25 -8 49 11 10 20 26 20 36 0 10 9 23 20 29 29 15 30 116 1 125 -25 8 -54
80 -42 104 6 10 6 23 1 31 -5 8 -4 22 1 33 6 10 8 25 5 33 -3 8 -1 25 5 37 8
18 17 22 40 19 22 -3 29 0 29 12 0 19 4 20 32 5 23 -12 33 -5 42 33 8 35 -17
62 -50 54 -32 -8 -77 21 -71 46 4 13 0 18 -14 18 -16 0 -18 7 -17 45 2 38 5
44 20 39 21 -6 78 22 78 39 0 7 13 34 29 59 18 28 27 54 24 66 -3 15 2 21 21
26 31 8 34 26 6 33 -11 3 -20 14 -20 24 0 24 -32 25 -52 2z"/>
<path d="M1823 256 c-13 -6 -23 -19 -23 -29 0 -10 -11 -22 -26 -27 -30 -12
-23 -30 11 -30 15 0 32 11 46 32 l23 31 15 -23 c21 -31 23 -57 6 -64 -24 -9
-18 -23 16 -36 23 -10 33 -10 38 -2 5 9 30 10 85 6 75 -7 77 -8 72 -31 -6 -23
7 -32 19 -13 3 6 17 10 31 10 14 0 34 5 45 11 19 10 19 11 -3 39 -25 31 -44
38 -51 18 -3 -10 -7 -10 -21 1 -12 10 -35 12 -86 9 -76 -6 -99 5 -53 24 l28
11 -30 6 c-20 5 -30 12 -29 23 1 13 -4 16 -26 11 -22 -4 -31 0 -39 16 -13 23
-16 24 -48 7z"/>
<path d="M2647 263 c-13 -13 -7 -79 11 -111 21 -40 67 -71 94 -64 21 5 97 117
98 144 0 10 -10 23 -22 29 -19 10 -24 8 -41 -15 -15 -20 -27 -26 -58 -26 -33
0 -41 4 -49 25 -9 25 -21 31 -33 18z"/>
</g>
</svg>
